<mxfile host="65bd71144e">
    <diagram id="8UD5d60HDsAUgDDDRMJ2" name="Page-1">
        <mxGraphModel dx="959" dy="634" grid="1" gridSize="10" guides="1" tooltips="1" connect="1" arrows="1" fold="1" page="1" pageScale="1" pageWidth="850" pageHeight="1100" math="0" shadow="0">
            <root>
                <mxCell id="0"/>
                <mxCell id="1" parent="0"/>
                <mxCell id="2" value="&lt;div&gt;&lt;b&gt;@base&lt;/b&gt;: http://base.uri#&lt;/div&gt;&lt;div&gt;&lt;b style=&quot;background-color: initial;&quot;&gt;rr&lt;/b&gt;&lt;span style=&quot;background-color: initial;&quot;&gt;: http://www.w3.org/ns/r2rml#&lt;/span&gt;&lt;br&gt;&lt;/div&gt;&lt;div&gt;&lt;div style=&quot;border-color: var(--border-color);&quot;&gt;&lt;b&gt;rml&lt;/b&gt;: http://semweb.mmlab.be/ns/rml#&lt;/div&gt;&lt;div style=&quot;border-color: var(--border-color);&quot;&gt;&lt;div style=&quot;line-height: 19px;&quot;&gt;&lt;div style=&quot;&quot;&gt;&lt;b&gt;ql&lt;/b&gt;: http://semweb.mmlab.be/ns/ql#&lt;/div&gt;&lt;div style=&quot;&quot;&gt;&lt;/div&gt;&lt;/div&gt;&lt;/div&gt;&lt;div style=&quot;border-color: var(--border-color);&quot;&gt;&lt;b&gt;rdf&lt;/b&gt;: http://www.w3.org/1999/02/22-rdf-syntax-ns#&lt;/div&gt;&lt;div style=&quot;border-color: var(--border-color);&quot;&gt;&lt;b&gt;rdfs&lt;/b&gt;: http://www.w3.org/2000/01/rdf-schema#&lt;/div&gt;&lt;div style=&quot;border-color: var(--border-color);&quot;&gt;&lt;span style=&quot;background-color: initial;&quot;&gt;&lt;b&gt;owl&lt;/b&gt;: http://www.w3.org/2002/07/owl#&lt;/span&gt;&lt;br&gt;&lt;/div&gt;&lt;div style=&quot;border-color: var(--border-color);&quot;&gt;&lt;b&gt;skos&lt;/b&gt;: http://www.w3.org/2004/02/skos/core#&lt;/div&gt;&lt;div style=&quot;border-color: var(--border-color);&quot;&gt;&lt;b&gt;xml&lt;/b&gt;: http://www.w3.org/XML/1998/namespace&lt;/div&gt;&lt;div style=&quot;border-color: var(--border-color);&quot;&gt;&lt;b&gt;xsd&lt;/b&gt;: http://www.w3.org/2001/XMLSchema#&lt;/div&gt;&lt;div style=&quot;border-color: var(--border-color);&quot;&gt;&lt;span style=&quot;background-color: initial;&quot;&gt;&lt;b&gt;wgs&lt;/b&gt;: http://www.w3.org/2003/01/geo/wgs84_pos#&lt;/span&gt;&lt;br&gt;&lt;/div&gt;&lt;div style=&quot;border-color: var(--border-color);&quot;&gt;&lt;b style=&quot;background-color: initial;&quot;&gt;geo&lt;/b&gt;&lt;span style=&quot;background-color: initial;&quot;&gt;: http://www.opengis.net/ont/geosparql#&lt;/span&gt;&lt;br&gt;&lt;/div&gt;&lt;div style=&quot;border-color: var(--border-color);&quot;&gt;&lt;div style=&quot;border-color: var(--border-color);&quot;&gt;&lt;b style=&quot;border-color: var(--border-color);&quot;&gt;usage-o&lt;/b&gt;: http://usage-project.eu/ld/ontology#&lt;/div&gt;&lt;/div&gt;&lt;div style=&quot;border-color: var(--border-color);&quot;&gt;&lt;span style=&quot;background-color: initial;&quot;&gt;&lt;b&gt;usage-g&lt;/b&gt;: http://usage-project.eu/ld/graph/&lt;/span&gt;&lt;br&gt;&lt;/div&gt;&lt;/div&gt;" style="shape=note;whiteSpace=wrap;html=1;backgroundOutline=1;darkOpacity=0.05;" parent="1" vertex="1">
                    <mxGeometry x="20" y="20" width="340" height="220" as="geometry"/>
                </mxCell>
                <mxCell id="4" value="&lt;div style=&quot;line-height: 19px;&quot;&gt;rr:TriplesMap&lt;/div&gt;" style="rounded=0;whiteSpace=wrap;html=1;snapToPoint=1;points=[[0.1,0],[0.2,0],[0.3,0],[0.4,0],[0.5,0],[0.6,0],[0.7,0],[0.8,0],[0.9,0],[0,0.1],[0,0.3],[0,0.5],[0,0.7],[0,0.9],[0.1,1],[0.2,1],[0.3,1],[0.4,1],[0.5,1],[0.6,1],[0.7,1],[0.8,1],[0.9,1],[1,0.1],[1,0.3],[1,0.5],[1,0.7],[1,0.9]];" parent="1" vertex="1">
                    <mxGeometry x="90" y="300" width="100" height="30" as="geometry"/>
                </mxCell>
                <mxCell id="5" value="&lt;u&gt;&amp;lt;#Geometry&amp;gt;&lt;/u&gt;" style="rounded=0;whiteSpace=wrap;html=1;snapToPoint=1;points=[[0.1,0],[0.2,0],[0.3,0],[0.4,0],[0.5,0],[0.6,0],[0.7,0],[0.8,0],[0.9,0],[0,0.1],[0,0.3],[0,0.5],[0,0.7],[0,0.9],[0.1,1],[0.2,1],[0.3,1],[0.4,1],[0.5,1],[0.6,1],[0.7,1],[0.8,1],[0.9,1],[1,0.1],[1,0.3],[1,0.5],[1,0.7],[1,0.9]];" parent="1" vertex="1">
                    <mxGeometry x="90" y="330" width="100" height="30" as="geometry"/>
                </mxCell>
                <mxCell id="9" value="" style="endArrow=classic;html=1;exitX=0.5;exitY=1;exitDx=0;exitDy=0;entryX=0;entryY=0.5;entryDx=0;entryDy=0;endSize=8;edgeStyle=orthogonalEdgeStyle;rounded=0;" parent="1" source="5" target="13" edge="1">
                    <mxGeometry width="50" height="50" relative="1" as="geometry">
                        <mxPoint x="188.00000000000045" y="465" as="sourcePoint"/>
                        <mxPoint x="315" y="395" as="targetPoint"/>
                    </mxGeometry>
                </mxCell>
                <mxCell id="10" value="&lt;span style=&quot;background-color: rgb(251, 251, 251);&quot;&gt;rml:logicalSource&lt;/span&gt;" style="text;html=1;align=center;verticalAlign=middle;resizable=0;points=[];labelBackgroundColor=#ffffff;" parent="9" vertex="1" connectable="0">
                    <mxGeometry x="-0.1269" relative="1" as="geometry">
                        <mxPoint as="offset"/>
                    </mxGeometry>
                </mxCell>
                <mxCell id="11" value="&lt;div style=&quot;line-height: 19px;&quot;&gt;&lt;div style=&quot;line-height: 19px;&quot;&gt;ql:CSV&lt;/div&gt;&lt;/div&gt;" style="rounded=0;whiteSpace=wrap;html=1;snapToPoint=1;points=[[0.1,0],[0.2,0],[0.3,0],[0.4,0],[0.5,0],[0.6,0],[0.7,0],[0.8,0],[0.9,0],[0,0.1],[0,0.3],[0,0.5],[0,0.7],[0,0.9],[0.1,1],[0.2,1],[0.3,1],[0.4,1],[0.5,1],[0.6,1],[0.7,1],[0.8,1],[0.9,1],[1,0.1],[1,0.3],[1,0.5],[1,0.7],[1,0.9]];fontStyle=4" parent="1" vertex="1">
                    <mxGeometry x="540" y="360" width="70" height="30" as="geometry"/>
                </mxCell>
                <mxCell id="13" value="_b1" style="rounded=0;whiteSpace=wrap;html=1;snapToPoint=1;points=[[0.1,0],[0.2,0],[0.3,0],[0.4,0],[0.5,0],[0.6,0],[0.7,0],[0.8,0],[0.9,0],[0,0.1],[0,0.3],[0,0.5],[0,0.7],[0,0.9],[0.1,1],[0.2,1],[0.3,1],[0.4,1],[0.5,1],[0.6,1],[0.7,1],[0.8,1],[0.9,1],[1,0.1],[1,0.3],[1,0.5],[1,0.7],[1,0.9]];fontStyle=4" parent="1" vertex="1">
                    <mxGeometry x="310" y="360.0000000000002" width="60" height="30" as="geometry"/>
                </mxCell>
                <mxCell id="19" value="rml:source" style="edgeStyle=orthogonalEdgeStyle;rounded=0;orthogonalLoop=1;jettySize=auto;html=1;fontSize=12;entryX=0;entryY=0.5;entryDx=0;entryDy=0;" parent="1" source="13" target="20" edge="1">
                    <mxGeometry x="0.3115" relative="1" as="geometry">
                        <mxPoint x="410" y="374.5000000000002" as="sourcePoint"/>
                        <mxPoint x="550" y="374.5" as="targetPoint"/>
                        <Array as="points">
                            <mxPoint x="340" y="335"/>
                        </Array>
                        <mxPoint as="offset"/>
                    </mxGeometry>
                </mxCell>
                <mxCell id="20" value="&quot;./data/ZGZ/Residencial/refined/01-BBDD-EnerEst-EResidenciales-2021-v001-refined.csv&quot;" style="rounded=0;whiteSpace=wrap;html=1;snapToPoint=1;" parent="1" vertex="1">
                    <mxGeometry x="460" y="320" width="510" height="30" as="geometry"/>
                </mxCell>
                <mxCell id="21" value="rml:referenceFormulation" style="rounded=0;orthogonalLoop=1;jettySize=auto;html=1;fontSize=12;" parent="1" source="13" target="11" edge="1">
                    <mxGeometry relative="1" as="geometry">
                        <mxPoint x="370" y="415.0000000000002" as="sourcePoint"/>
                        <mxPoint x="530" y="415.0000000000002" as="targetPoint"/>
                    </mxGeometry>
                </mxCell>
                <mxCell id="23" value="" style="endArrow=classic;html=1;exitX=0.5;exitY=1;exitDx=0;exitDy=0;endSize=8;rounded=0;entryX=0;entryY=0.5;entryDx=0;entryDy=0;edgeStyle=orthogonalEdgeStyle;" parent="1" source="5" target="26" edge="1">
                    <mxGeometry width="50" height="50" relative="1" as="geometry">
                        <mxPoint x="150" y="460" as="sourcePoint"/>
                        <mxPoint x="280" y="430" as="targetPoint"/>
                    </mxGeometry>
                </mxCell>
                <mxCell id="24" value="&lt;span style=&quot;background-color: rgb(251, 251, 251);&quot;&gt;rr:subjectMap&lt;/span&gt;" style="text;html=1;align=center;verticalAlign=middle;resizable=0;points=[];labelBackgroundColor=#ffffff;" parent="23" vertex="1" connectable="0">
                    <mxGeometry x="-0.1269" relative="1" as="geometry">
                        <mxPoint x="45" as="offset"/>
                    </mxGeometry>
                </mxCell>
                <mxCell id="25" value="&lt;div style=&quot;line-height: 19px;&quot;&gt;&lt;div style=&quot;line-height: 19px;&quot;&gt;geo:Geometry&lt;/div&gt;&lt;/div&gt;" style="rounded=0;whiteSpace=wrap;html=1;snapToPoint=1;points=[[0.1,0],[0.2,0],[0.3,0],[0.4,0],[0.5,0],[0.6,0],[0.7,0],[0.8,0],[0.9,0],[0,0.1],[0,0.3],[0,0.5],[0,0.7],[0,0.9],[0.1,1],[0.2,1],[0.3,1],[0.4,1],[0.5,1],[0.6,1],[0.7,1],[0.8,1],[0.9,1],[1,0.1],[1,0.3],[1,0.5],[1,0.7],[1,0.9]];fontStyle=4" parent="1" vertex="1">
                    <mxGeometry x="540" y="450" width="100" height="30" as="geometry"/>
                </mxCell>
                <mxCell id="26" value="_b2" style="rounded=0;whiteSpace=wrap;html=1;snapToPoint=1;points=[[0.1,0],[0.2,0],[0.3,0],[0.4,0],[0.5,0],[0.6,0],[0.7,0],[0.8,0],[0.9,0],[0,0.1],[0,0.3],[0,0.5],[0,0.7],[0,0.9],[0.1,1],[0.2,1],[0.3,1],[0.4,1],[0.5,1],[0.6,1],[0.7,1],[0.8,1],[0.9,1],[1,0.1],[1,0.3],[1,0.5],[1,0.7],[1,0.9]];fontStyle=4" parent="1" vertex="1">
                    <mxGeometry x="310" y="450.0000000000002" width="60" height="30" as="geometry"/>
                </mxCell>
                <mxCell id="27" value="rr:template" style="edgeStyle=orthogonalEdgeStyle;rounded=0;orthogonalLoop=1;jettySize=auto;html=1;fontSize=12;entryX=0;entryY=0.5;entryDx=0;entryDy=0;" parent="1" source="26" target="28" edge="1">
                    <mxGeometry x="0.3115" relative="1" as="geometry">
                        <mxPoint x="410" y="464.5000000000002" as="sourcePoint"/>
                        <mxPoint x="550" y="464.5" as="targetPoint"/>
                        <Array as="points">
                            <mxPoint x="340" y="425"/>
                        </Array>
                        <mxPoint as="offset"/>
                    </mxGeometry>
                </mxCell>
                <mxCell id="28" value="&quot;http://usage-project.eu/ld/resource/Geometry/ZGZ-id-{ID_CELDA}&quot;" style="rounded=0;whiteSpace=wrap;html=1;snapToPoint=1;" parent="1" vertex="1">
                    <mxGeometry x="460" y="410" width="380" height="30" as="geometry"/>
                </mxCell>
                <mxCell id="29" value="rr:class" style="rounded=0;orthogonalLoop=1;jettySize=auto;html=1;fontSize=12;" parent="1" source="26" target="25" edge="1">
                    <mxGeometry relative="1" as="geometry">
                        <mxPoint x="370" y="505.0000000000002" as="sourcePoint"/>
                        <mxPoint x="530" y="505.0000000000002" as="targetPoint"/>
                    </mxGeometry>
                </mxCell>
                <mxCell id="30" value="&lt;div style=&quot;line-height: 19px;&quot;&gt;&lt;div style=&quot;line-height: 19px;&quot;&gt;usage-g:ZGZ&lt;/div&gt;&lt;/div&gt;" style="rounded=0;whiteSpace=wrap;html=1;snapToPoint=1;points=[[0.1,0],[0.2,0],[0.3,0],[0.4,0],[0.5,0],[0.6,0],[0.7,0],[0.8,0],[0.9,0],[0,0.1],[0,0.3],[0,0.5],[0,0.7],[0,0.9],[0.1,1],[0.2,1],[0.3,1],[0.4,1],[0.5,1],[0.6,1],[0.7,1],[0.8,1],[0.9,1],[1,0.1],[1,0.3],[1,0.5],[1,0.7],[1,0.9]];fontStyle=4" parent="1" vertex="1">
                    <mxGeometry x="540" y="500" width="90" height="30" as="geometry"/>
                </mxCell>
                <mxCell id="31" value="rr:graph" style="rounded=0;orthogonalLoop=1;jettySize=auto;html=1;fontSize=12;exitX=0.5;exitY=1;exitDx=0;exitDy=0;edgeStyle=orthogonalEdgeStyle;" parent="1" source="26" target="30" edge="1">
                    <mxGeometry relative="1" as="geometry">
                        <mxPoint x="340.0005882352941" y="515" as="sourcePoint"/>
                        <mxPoint x="500.53" y="555.0000000000002" as="targetPoint"/>
                        <Array as="points">
                            <mxPoint x="340" y="515"/>
                        </Array>
                    </mxGeometry>
                </mxCell>
                <mxCell id="32" value="&lt;div style=&quot;line-height: 19px;&quot;&gt;&lt;div style=&quot;line-height: 19px;&quot;&gt;&quot;asWkt&quot;&lt;/div&gt;&lt;/div&gt;" style="rounded=0;whiteSpace=wrap;html=1;snapToPoint=1;points=[[0.1,0],[0.2,0],[0.3,0],[0.4,0],[0.5,0],[0.6,0],[0.7,0],[0.8,0],[0.9,0],[0,0.1],[0,0.3],[0,0.5],[0,0.7],[0,0.9],[0.1,1],[0.2,1],[0.3,1],[0.4,1],[0.5,1],[0.6,1],[0.7,1],[0.8,1],[0.9,1],[1,0.1],[1,0.3],[1,0.5],[1,0.7],[1,0.9]];" parent="1" vertex="1">
                    <mxGeometry x="650" y="600" width="60" height="30" as="geometry"/>
                </mxCell>
                <mxCell id="33" value="_b3" style="rounded=0;whiteSpace=wrap;html=1;snapToPoint=1;points=[[0.1,0],[0.2,0],[0.3,0],[0.4,0],[0.5,0],[0.6,0],[0.7,0],[0.8,0],[0.9,0],[0,0.1],[0,0.3],[0,0.5],[0,0.7],[0,0.9],[0.1,1],[0.2,1],[0.3,1],[0.4,1],[0.5,1],[0.6,1],[0.7,1],[0.8,1],[0.9,1],[1,0.1],[1,0.3],[1,0.5],[1,0.7],[1,0.9]];fontStyle=4" parent="1" vertex="1">
                    <mxGeometry x="310" y="590.0000000000002" width="60" height="30" as="geometry"/>
                </mxCell>
                <mxCell id="34" value="rr:predicate" style="edgeStyle=orthogonalEdgeStyle;rounded=0;orthogonalLoop=1;jettySize=auto;html=1;fontSize=12;entryX=0;entryY=0.5;entryDx=0;entryDy=0;" parent="1" source="33" target="35" edge="1">
                    <mxGeometry x="0.3115" relative="1" as="geometry">
                        <mxPoint x="410" y="604.5000000000002" as="sourcePoint"/>
                        <mxPoint x="550" y="604.5" as="targetPoint"/>
                        <Array as="points">
                            <mxPoint x="340" y="565"/>
                        </Array>
                        <mxPoint as="offset"/>
                    </mxGeometry>
                </mxCell>
                <mxCell id="35" value="geo:asWKT" style="rounded=0;whiteSpace=wrap;html=1;snapToPoint=1;fontStyle=4" parent="1" vertex="1">
                    <mxGeometry x="460" y="550" width="90" height="30" as="geometry"/>
                </mxCell>
                <mxCell id="36" value="rml:reference" style="rounded=0;orthogonalLoop=1;jettySize=auto;html=1;fontSize=12;exitX=0.4;exitY=0;exitDx=0;exitDy=0;edgeStyle=orthogonalEdgeStyle;entryX=0;entryY=0.5;entryDx=0;entryDy=0;" parent="1" source="37" target="32" edge="1">
                    <mxGeometry x="0.0755" relative="1" as="geometry">
                        <mxPoint x="559.9952941176471" y="604.7058823529412" as="sourcePoint"/>
                        <mxPoint x="719.76" y="645.0000000000002" as="targetPoint"/>
                        <mxPoint as="offset"/>
                    </mxGeometry>
                </mxCell>
                <mxCell id="37" value="&lt;div style=&quot;line-height: 19px;&quot;&gt;&lt;div style=&quot;line-height: 19px;&quot;&gt;_b4&lt;/div&gt;&lt;/div&gt;" style="rounded=0;whiteSpace=wrap;html=1;snapToPoint=1;points=[[0.1,0],[0.2,0],[0.3,0],[0.4,0],[0.5,0],[0.6,0],[0.7,0],[0.8,0],[0.9,0],[0,0.1],[0,0.3],[0,0.5],[0,0.7],[0,0.9],[0.1,1],[0.2,1],[0.3,1],[0.4,1],[0.5,1],[0.6,1],[0.7,1],[0.8,1],[0.9,1],[1,0.1],[1,0.3],[1,0.5],[1,0.7],[1,0.9]];fontStyle=4" parent="1" vertex="1">
                    <mxGeometry x="460" y="640" width="60" height="30" as="geometry"/>
                </mxCell>
                <mxCell id="38" value="rr:objectMap" style="rounded=0;orthogonalLoop=1;jettySize=auto;html=1;fontSize=12;exitX=0.5;exitY=1;exitDx=0;exitDy=0;edgeStyle=orthogonalEdgeStyle;" parent="1" source="33" target="37" edge="1">
                    <mxGeometry x="0.2289" relative="1" as="geometry">
                        <mxPoint x="340.0005882352941" y="655" as="sourcePoint"/>
                        <mxPoint x="500.53" y="695.0000000000002" as="targetPoint"/>
                        <Array as="points">
                            <mxPoint x="340" y="655"/>
                        </Array>
                        <mxPoint as="offset"/>
                    </mxGeometry>
                </mxCell>
                <mxCell id="39" value="" style="endArrow=classic;html=1;exitX=0.5;exitY=1;exitDx=0;exitDy=0;endSize=8;rounded=0;entryX=0;entryY=0.5;entryDx=0;entryDy=0;edgeStyle=orthogonalEdgeStyle;" parent="1" source="5" target="33" edge="1">
                    <mxGeometry width="50" height="50" relative="1" as="geometry">
                        <mxPoint x="150" y="370" as="sourcePoint"/>
                        <mxPoint x="320" y="475.0000000000002" as="targetPoint"/>
                    </mxGeometry>
                </mxCell>
                <mxCell id="40" value="&lt;span style=&quot;background-color: rgb(251, 251, 251);&quot;&gt;rr:predicateObjectMap&lt;/span&gt;" style="text;html=1;align=center;verticalAlign=middle;resizable=0;points=[];labelBackgroundColor=#ffffff;" parent="39" vertex="1" connectable="0">
                    <mxGeometry x="-0.1269" relative="1" as="geometry">
                        <mxPoint x="80" y="64" as="offset"/>
                    </mxGeometry>
                </mxCell>
                <mxCell id="43" value="rr:datatype" style="rounded=0;orthogonalLoop=1;jettySize=auto;html=1;fontSize=12;exitX=1;exitY=0.5;exitDx=0;exitDy=0;edgeStyle=orthogonalEdgeStyle;entryX=0;entryY=0.5;entryDx=0;entryDy=0;" parent="1" source="37" target="44" edge="1">
                    <mxGeometry x="0.0755" relative="1" as="geometry">
                        <mxPoint x="520" y="680" as="sourcePoint"/>
                        <mxPoint x="755.76" y="685.0000000000002" as="targetPoint"/>
                        <mxPoint as="offset"/>
                    </mxGeometry>
                </mxCell>
                <mxCell id="44" value="&lt;div style=&quot;line-height: 19px;&quot;&gt;&lt;div style=&quot;line-height: 19px;&quot;&gt;geo:wktLiteral&lt;/div&gt;&lt;/div&gt;" style="rounded=0;whiteSpace=wrap;html=1;snapToPoint=1;points=[[0.1,0],[0.2,0],[0.3,0],[0.4,0],[0.5,0],[0.6,0],[0.7,0],[0.8,0],[0.9,0],[0,0.1],[0,0.3],[0,0.5],[0,0.7],[0,0.9],[0.1,1],[0.2,1],[0.3,1],[0.4,1],[0.5,1],[0.6,1],[0.7,1],[0.8,1],[0.9,1],[1,0.1],[1,0.3],[1,0.5],[1,0.7],[1,0.9]];fontStyle=4" parent="1" vertex="1">
                    <mxGeometry x="630" y="640" width="94" height="30" as="geometry"/>
                </mxCell>
            </root>
        </mxGraphModel>
    </diagram>
</mxfile>